<?xml version="1.0" encoding="utf-8" standalone="no"?>
<!DOCTYPE svg PUBLIC "-//W3C//DTD SVG 1.1//EN"
  "http://www.w3.org/Graphics/SVG/1.1/DTD/svg11.dtd">
<!-- Created with matplotlib (http://matplotlib.org/) -->
<svg height="576pt" version="1.1" viewBox="0 0 1080 576" width="1080pt" xmlns="http://www.w3.org/2000/svg" xmlns:xlink="http://www.w3.org/1999/xlink">
 <defs>
  <style type="text/css">
*{stroke-linecap:butt;stroke-linejoin:round;}
  </style>
 </defs>
 <g id="figure_1">
  <g id="patch_1">
   <path d="M 0 576 
L 1080 576 
L 1080 0 
L 0 0 
z
" style="fill:#ffffff;"/>
  </g>
  <g id="axes_1">
   <g id="patch_2">
    <path d="M 135 512.64 
L 972 512.64 
L 972 69.12 
L 135 69.12 
z
" style="fill:#eaeaf2;"/>
   </g>
   <g id="matplotlib.axis_1">
    <g id="xtick_1">
     <g id="text_1">
      <!-- −0.6 -->
      <defs>
       <path d="M 10.59375 35.5 
L 73.1875 35.5 
L 73.1875 27.203125 
L 10.59375 27.203125 
z
" id="DejaVuSans-2212"/>
       <path d="M 31.78125 66.40625 
Q 24.171875 66.40625 20.328125 58.90625 
Q 16.5 51.421875 16.5 36.375 
Q 16.5 21.390625 20.328125 13.890625 
Q 24.171875 6.390625 31.78125 6.390625 
Q 39.453125 6.390625 43.28125 13.890625 
Q 47.125 21.390625 47.125 36.375 
Q 47.125 51.421875 43.28125 58.90625 
Q 39.453125 66.40625 31.78125 66.40625 
z
M 31.78125 74.21875 
Q 44.046875 74.21875 50.515625 64.515625 
Q 56.984375 54.828125 56.984375 36.375 
Q 56.984375 17.96875 50.515625 8.265625 
Q 44.046875 -1.421875 31.78125 -1.421875 
Q 19.53125 -1.421875 13.0625 8.265625 
Q 6.59375 17.96875 6.59375 36.375 
Q 6.59375 54.828125 13.0625 64.515625 
Q 19.53125 74.21875 31.78125 74.21875 
z
" id="DejaVuSans-30"/>
       <path d="M 10.6875 12.40625 
L 21 12.40625 
L 21 0 
L 10.6875 0 
z
" id="DejaVuSans-2e"/>
       <path d="M 33.015625 40.375 
Q 26.375 40.375 22.484375 35.828125 
Q 18.609375 31.296875 18.609375 23.390625 
Q 18.609375 15.53125 22.484375 10.953125 
Q 26.375 6.390625 33.015625 6.390625 
Q 39.65625 6.390625 43.53125 10.953125 
Q 47.40625 15.53125 47.40625 23.390625 
Q 47.40625 31.296875 43.53125 35.828125 
Q 39.65625 40.375 33.015625 40.375 
z
M 52.59375 71.296875 
L 52.59375 62.3125 
Q 48.875 64.0625 45.09375 64.984375 
Q 41.3125 65.921875 37.59375 65.921875 
Q 27.828125 65.921875 22.671875 59.328125 
Q 17.53125 52.734375 16.796875 39.40625 
Q 19.671875 43.65625 24.015625 45.921875 
Q 28.375 48.1875 33.59375 48.1875 
Q 44.578125 48.1875 50.953125 41.515625 
Q 57.328125 34.859375 57.328125 23.390625 
Q 57.328125 12.15625 50.6875 5.359375 
Q 44.046875 -1.421875 33.015625 -1.421875 
Q 20.359375 -1.421875 13.671875 8.265625 
Q 6.984375 17.96875 6.984375 36.375 
Q 6.984375 53.65625 15.1875 63.9375 
Q 23.390625 74.21875 37.203125 74.21875 
Q 40.921875 74.21875 44.703125 73.484375 
Q 48.484375 72.75 52.59375 71.296875 
z
" id="DejaVuSans-36"/>
      </defs>
      <g style="fill:#262626;" transform="translate(198.223239 530.498281)scale(0.11 -0.11)">
       <use xlink:href="#DejaVuSans-2212"/>
       <use x="83.789062" xlink:href="#DejaVuSans-30"/>
       <use x="147.412109" xlink:href="#DejaVuSans-2e"/>
       <use x="179.199219" xlink:href="#DejaVuSans-36"/>
      </g>
     </g>
    </g>
    <g id="xtick_2">
     <g id="text_2">
      <!-- −0.4 -->
      <defs>
       <path d="M 37.796875 64.3125 
L 12.890625 25.390625 
L 37.796875 25.390625 
z
M 35.203125 72.90625 
L 47.609375 72.90625 
L 47.609375 25.390625 
L 58.015625 25.390625 
L 58.015625 17.1875 
L 47.609375 17.1875 
L 47.609375 0 
L 37.796875 0 
L 37.796875 17.1875 
L 4.890625 17.1875 
L 4.890625 26.703125 
z
" id="DejaVuSans-34"/>
      </defs>
      <g style="fill:#262626;" transform="translate(305.927709 530.498281)scale(0.11 -0.11)">
       <use xlink:href="#DejaVuSans-2212"/>
       <use x="83.789062" xlink:href="#DejaVuSans-30"/>
       <use x="147.412109" xlink:href="#DejaVuSans-2e"/>
       <use x="179.199219" xlink:href="#DejaVuSans-34"/>
      </g>
     </g>
    </g>
    <g id="xtick_3">
     <g id="text_3">
      <!-- −0.2 -->
      <defs>
       <path d="M 19.1875 8.296875 
L 53.609375 8.296875 
L 53.609375 0 
L 7.328125 0 
L 7.328125 8.296875 
Q 12.9375 14.109375 22.625 23.890625 
Q 32.328125 33.6875 34.8125 36.53125 
Q 39.546875 41.84375 41.421875 45.53125 
Q 43.3125 49.21875 43.3125 52.78125 
Q 43.3125 58.59375 39.234375 62.25 
Q 35.15625 65.921875 28.609375 65.921875 
Q 23.96875 65.921875 18.8125 64.3125 
Q 13.671875 62.703125 7.8125 59.421875 
L 7.8125 69.390625 
Q 13.765625 71.78125 18.9375 73 
Q 24.125 74.21875 28.421875 74.21875 
Q 39.75 74.21875 46.484375 68.546875 
Q 53.21875 62.890625 53.21875 53.421875 
Q 53.21875 48.921875 51.53125 44.890625 
Q 49.859375 40.875 45.40625 35.40625 
Q 44.1875 33.984375 37.640625 27.21875 
Q 31.109375 20.453125 19.1875 8.296875 
z
" id="DejaVuSans-32"/>
      </defs>
      <g style="fill:#262626;" transform="translate(413.632179 530.498281)scale(0.11 -0.11)">
       <use xlink:href="#DejaVuSans-2212"/>
       <use x="83.789062" xlink:href="#DejaVuSans-30"/>
       <use x="147.412109" xlink:href="#DejaVuSans-2e"/>
       <use x="179.199219" xlink:href="#DejaVuSans-32"/>
      </g>
     </g>
    </g>
    <g id="xtick_4">
     <g id="text_4">
      <!-- 0.0 -->
      <g style="fill:#262626;" transform="translate(525.945476 530.498281)scale(0.11 -0.11)">
       <use xlink:href="#DejaVuSans-30"/>
       <use x="63.623047" xlink:href="#DejaVuSans-2e"/>
       <use x="95.410156" xlink:href="#DejaVuSans-30"/>
      </g>
     </g>
    </g>
    <g id="xtick_5">
     <g id="text_5">
      <!-- 0.2 -->
      <g style="fill:#262626;" transform="translate(633.649946 530.498281)scale(0.11 -0.11)">
       <use xlink:href="#DejaVuSans-30"/>
       <use x="63.623047" xlink:href="#DejaVuSans-2e"/>
       <use x="95.410156" xlink:href="#DejaVuSans-32"/>
      </g>
     </g>
    </g>
    <g id="xtick_6">
     <g id="text_6">
      <!-- 0.4 -->
      <g style="fill:#262626;" transform="translate(741.354416 530.498281)scale(0.11 -0.11)">
       <use xlink:href="#DejaVuSans-30"/>
       <use x="63.623047" xlink:href="#DejaVuSans-2e"/>
       <use x="95.410156" xlink:href="#DejaVuSans-34"/>
      </g>
     </g>
    </g>
    <g id="xtick_7">
     <g id="text_7">
      <!-- 0.6 -->
      <g style="fill:#262626;" transform="translate(849.058886 530.498281)scale(0.11 -0.11)">
       <use xlink:href="#DejaVuSans-30"/>
       <use x="63.623047" xlink:href="#DejaVuSans-2e"/>
       <use x="95.410156" xlink:href="#DejaVuSans-36"/>
      </g>
     </g>
    </g>
    <g id="xtick_8">
     <g id="text_8">
      <!-- 0.8 -->
      <defs>
       <path d="M 31.78125 34.625 
Q 24.75 34.625 20.71875 30.859375 
Q 16.703125 27.09375 16.703125 20.515625 
Q 16.703125 13.921875 20.71875 10.15625 
Q 24.75 6.390625 31.78125 6.390625 
Q 38.8125 6.390625 42.859375 10.171875 
Q 46.921875 13.96875 46.921875 20.515625 
Q 46.921875 27.09375 42.890625 30.859375 
Q 38.875 34.625 31.78125 34.625 
z
M 21.921875 38.8125 
Q 15.578125 40.375 12.03125 44.71875 
Q 8.5 49.078125 8.5 55.328125 
Q 8.5 64.0625 14.71875 69.140625 
Q 20.953125 74.21875 31.78125 74.21875 
Q 42.671875 74.21875 48.875 69.140625 
Q 55.078125 64.0625 55.078125 55.328125 
Q 55.078125 49.078125 51.53125 44.71875 
Q 48 40.375 41.703125 38.8125 
Q 48.828125 37.15625 52.796875 32.3125 
Q 56.78125 27.484375 56.78125 20.515625 
Q 56.78125 9.90625 50.3125 4.234375 
Q 43.84375 -1.421875 31.78125 -1.421875 
Q 19.734375 -1.421875 13.25 4.234375 
Q 6.78125 9.90625 6.78125 20.515625 
Q 6.78125 27.484375 10.78125 32.3125 
Q 14.796875 37.15625 21.921875 38.8125 
z
M 18.3125 54.390625 
Q 18.3125 48.734375 21.84375 45.5625 
Q 25.390625 42.390625 31.78125 42.390625 
Q 38.140625 42.390625 41.71875 45.5625 
Q 45.3125 48.734375 45.3125 54.390625 
Q 45.3125 60.0625 41.71875 63.234375 
Q 38.140625 66.40625 31.78125 66.40625 
Q 25.390625 66.40625 21.84375 63.234375 
Q 18.3125 60.0625 18.3125 54.390625 
z
" id="DejaVuSans-38"/>
      </defs>
      <g style="fill:#262626;" transform="translate(956.763355 530.498281)scale(0.11 -0.11)">
       <use xlink:href="#DejaVuSans-30"/>
       <use x="63.623047" xlink:href="#DejaVuSans-2e"/>
       <use x="95.410156" xlink:href="#DejaVuSans-38"/>
      </g>
     </g>
    </g>
   </g>
   <g id="matplotlib.axis_2">
    <g id="ytick_1">
     <g id="text_9">
      <!-- −0.8 -->
      <g style="fill:#262626;" transform="translate(98.788906 500.882784)scale(0.11 -0.11)">
       <use xlink:href="#DejaVuSans-2212"/>
       <use x="83.789062" xlink:href="#DejaVuSans-30"/>
       <use x="147.412109" xlink:href="#DejaVuSans-2e"/>
       <use x="179.199219" xlink:href="#DejaVuSans-38"/>
      </g>
     </g>
    </g>
    <g id="ytick_2">
     <g id="text_10">
      <!-- −0.6 -->
      <g style="fill:#262626;" transform="translate(98.788906 445.886721)scale(0.11 -0.11)">
       <use xlink:href="#DejaVuSans-2212"/>
       <use x="83.789062" xlink:href="#DejaVuSans-30"/>
       <use x="147.412109" xlink:href="#DejaVuSans-2e"/>
       <use x="179.199219" xlink:href="#DejaVuSans-36"/>
      </g>
     </g>
    </g>
    <g id="ytick_3">
     <g id="text_11">
      <!-- −0.4 -->
      <g style="fill:#262626;" transform="translate(98.788906 390.890659)scale(0.11 -0.11)">
       <use xlink:href="#DejaVuSans-2212"/>
       <use x="83.789062" xlink:href="#DejaVuSans-30"/>
       <use x="147.412109" xlink:href="#DejaVuSans-2e"/>
       <use x="179.199219" xlink:href="#DejaVuSans-34"/>
      </g>
     </g>
    </g>
    <g id="ytick_4">
     <g id="text_12">
      <!-- −0.2 -->
      <g style="fill:#262626;" transform="translate(98.788906 335.894596)scale(0.11 -0.11)">
       <use xlink:href="#DejaVuSans-2212"/>
       <use x="83.789062" xlink:href="#DejaVuSans-30"/>
       <use x="147.412109" xlink:href="#DejaVuSans-2e"/>
       <use x="179.199219" xlink:href="#DejaVuSans-32"/>
      </g>
     </g>
    </g>
    <g id="ytick_5">
     <g id="text_13">
      <!-- 0.0 -->
      <g style="fill:#262626;" transform="translate(108.006563 280.898533)scale(0.11 -0.11)">
       <use xlink:href="#DejaVuSans-30"/>
       <use x="63.623047" xlink:href="#DejaVuSans-2e"/>
       <use x="95.410156" xlink:href="#DejaVuSans-30"/>
      </g>
     </g>
    </g>
    <g id="ytick_6">
     <g id="text_14">
      <!-- 0.2 -->
      <g style="fill:#262626;" transform="translate(108.006563 225.90247)scale(0.11 -0.11)">
       <use xlink:href="#DejaVuSans-30"/>
       <use x="63.623047" xlink:href="#DejaVuSans-2e"/>
       <use x="95.410156" xlink:href="#DejaVuSans-32"/>
      </g>
     </g>
    </g>
    <g id="ytick_7">
     <g id="text_15">
      <!-- 0.4 -->
      <g style="fill:#262626;" transform="translate(108.006563 170.906408)scale(0.11 -0.11)">
       <use xlink:href="#DejaVuSans-30"/>
       <use x="63.623047" xlink:href="#DejaVuSans-2e"/>
       <use x="95.410156" xlink:href="#DejaVuSans-34"/>
      </g>
     </g>
    </g>
    <g id="ytick_8">
     <g id="text_16">
      <!-- 0.6 -->
      <g style="fill:#262626;" transform="translate(108.006563 115.910345)scale(0.11 -0.11)">
       <use xlink:href="#DejaVuSans-30"/>
       <use x="63.623047" xlink:href="#DejaVuSans-2e"/>
       <use x="95.410156" xlink:href="#DejaVuSans-36"/>
      </g>
     </g>
    </g>
   </g>
   <g id="PathCollection_1">
    <defs>
     <path d="M 0 3.162278 
C 0.838646 3.162278 1.643056 2.82908 2.236068 2.236068 
C 2.82908 1.643056 3.162278 0.838646 3.162278 0 
C 3.162278 -0.838646 2.82908 -1.643056 2.236068 -2.236068 
C 1.643056 -2.82908 0.838646 -3.162278 0 -3.162278 
C -0.838646 -3.162278 -1.643056 -2.82908 -2.236068 -2.236068 
C -2.82908 -1.643056 -3.162278 -0.838646 -3.162278 0 
C -3.162278 0.838646 -2.82908 1.643056 -2.236068 2.236068 
C -1.643056 2.82908 -0.838646 3.162278 0 3.162278 
z
" id="C0_0_8a16943cb7"/>
    </defs>
    <g clip-path="url(#p85dc09ff09)">
     <use style="fill:#fde725;stroke:#fde725;" x="257.106517" xlink:href="#C0_0_8a16943cb7" y="229.600182"/>
    </g>
    <g clip-path="url(#p85dc09ff09)">
     <use style="fill:#472d7b;stroke:#472d7b;" x="399.751231" xlink:href="#C0_0_8a16943cb7" y="222.179084"/>
    </g>
    <g clip-path="url(#p85dc09ff09)">
     <use style="fill:#440154;stroke:#440154;" x="624.616651" xlink:href="#C0_0_8a16943cb7" y="482.658023"/>
    </g>
    <g clip-path="url(#p85dc09ff09)">
     <use style="fill:#28ae80;stroke:#28ae80;" x="262.680592" xlink:href="#C0_0_8a16943cb7" y="342.830206"/>
    </g>
    <g clip-path="url(#p85dc09ff09)">
     <use style="fill:#28ae80;stroke:#28ae80;" x="377.092379" xlink:href="#C0_0_8a16943cb7" y="344.614493"/>
    </g>
    <g clip-path="url(#p85dc09ff09)">
     <use style="fill:#3b528b;stroke:#3b528b;" x="818.771066" xlink:href="#C0_0_8a16943cb7" y="398.564203"/>
    </g>
    <g clip-path="url(#p85dc09ff09)">
     <use style="fill:#addc30;stroke:#addc30;" x="891.219555" xlink:href="#C0_0_8a16943cb7" y="204.706217"/>
    </g>
    <g clip-path="url(#p85dc09ff09)">
     <use style="fill:#addc30;stroke:#addc30;" x="835.940543" xlink:href="#C0_0_8a16943cb7" y="142.748238"/>
    </g>
    <g clip-path="url(#p85dc09ff09)">
     <use style="fill:#440154;stroke:#440154;" x="707.466097" xlink:href="#C0_0_8a16943cb7" y="462.125203"/>
    </g>
    <g clip-path="url(#p85dc09ff09)">
     <use style="fill:#440154;stroke:#440154;" x="531.724592" xlink:href="#C0_0_8a16943cb7" y="491.06837"/>
    </g>
    <g clip-path="url(#p85dc09ff09)">
     <use style="fill:#5ec962;stroke:#5ec962;" x="413.956022" xlink:href="#C0_0_8a16943cb7" y="152.654223"/>
    </g>
    <g clip-path="url(#p85dc09ff09)">
     <use style="fill:#440154;stroke:#440154;" x="768.997434" xlink:href="#C0_0_8a16943cb7" y="444.989629"/>
    </g>
    <g clip-path="url(#p85dc09ff09)">
     <use style="fill:#5ec962;stroke:#5ec962;" x="280.625652" xlink:href="#C0_0_8a16943cb7" y="142.186835"/>
    </g>
    <g clip-path="url(#p85dc09ff09)">
     <use style="fill:#5ec962;stroke:#5ec962;" x="380.347807" xlink:href="#C0_0_8a16943cb7" y="112.742939"/>
    </g>
    <g clip-path="url(#p85dc09ff09)">
     <use style="fill:#3b528b;stroke:#3b528b;" x="921.185054" xlink:href="#C0_0_8a16943cb7" y="340.569466"/>
    </g>
    <g clip-path="url(#p85dc09ff09)">
     <use style="fill:#3b528b;stroke:#3b528b;" x="900.316092" xlink:href="#C0_0_8a16943cb7" y="370.87997"/>
    </g>
    <g clip-path="url(#p85dc09ff09)">
     <use style="fill:#472d7b;stroke:#472d7b;" x="393.531637" xlink:href="#C0_0_8a16943cb7" y="233.084261"/>
    </g>
    <g clip-path="url(#p85dc09ff09)">
     <use style="fill:#fde725;stroke:#fde725;" x="213.980573" xlink:href="#C0_0_8a16943cb7" y="261.05842"/>
    </g>
    <g clip-path="url(#p85dc09ff09)">
     <use style="fill:#28ae80;stroke:#28ae80;" x="333.500338" xlink:href="#C0_0_8a16943cb7" y="424.291251"/>
    </g>
    <g clip-path="url(#p85dc09ff09)">
     <use style="fill:#28ae80;stroke:#28ae80;" x="336.920085" xlink:href="#C0_0_8a16943cb7" y="328.051835"/>
    </g>
    <g clip-path="url(#p85dc09ff09)">
     <use style="fill:#28ae80;stroke:#28ae80;" x="432.048632" xlink:href="#C0_0_8a16943cb7" y="407.04487"/>
    </g>
    <g clip-path="url(#p85dc09ff09)">
     <use style="fill:#28ae80;stroke:#28ae80;" x="327.836372" xlink:href="#C0_0_8a16943cb7" y="374.159211"/>
    </g>
    <g clip-path="url(#p85dc09ff09)">
     <use style="fill:#28ae80;stroke:#28ae80;" x="377.543044" xlink:href="#C0_0_8a16943cb7" y="402.629635"/>
    </g>
    <g clip-path="url(#p85dc09ff09)">
     <use style="fill:#28ae80;stroke:#28ae80;" x="267.465212" xlink:href="#C0_0_8a16943cb7" y="380.409295"/>
    </g>
    <g clip-path="url(#p85dc09ff09)">
     <use style="fill:#472d7b;stroke:#472d7b;" x="493.99045" xlink:href="#C0_0_8a16943cb7" y="230.985356"/>
    </g>
    <g clip-path="url(#p85dc09ff09)">
     <use style="fill:#21918c;stroke:#21918c;" x="606.668808" xlink:href="#C0_0_8a16943cb7" y="246.346913"/>
    </g>
    <g clip-path="url(#p85dc09ff09)">
     <use style="fill:#21918c;stroke:#21918c;" x="557.874003" xlink:href="#C0_0_8a16943cb7" y="321.930951"/>
    </g>
    <g clip-path="url(#p85dc09ff09)">
     <use style="fill:#21918c;stroke:#21918c;" x="492.902418" xlink:href="#C0_0_8a16943cb7" y="294.317703"/>
    </g>
    <g clip-path="url(#p85dc09ff09)">
     <use style="fill:#5ec962;stroke:#5ec962;" x="342.574024" xlink:href="#C0_0_8a16943cb7" y="164.536078"/>
    </g>
    <g clip-path="url(#p85dc09ff09)">
     <use style="fill:#21918c;stroke:#21918c;" x="629.373892" xlink:href="#C0_0_8a16943cb7" y="279.718181"/>
    </g>
    <g clip-path="url(#p85dc09ff09)">
     <use style="fill:#21918c;stroke:#21918c;" x="554.539063" xlink:href="#C0_0_8a16943cb7" y="371.816152"/>
    </g>
    <g clip-path="url(#p85dc09ff09)">
     <use style="fill:#21918c;stroke:#21918c;" x="679.848942" xlink:href="#C0_0_8a16943cb7" y="356.933059"/>
    </g>
    <g clip-path="url(#p85dc09ff09)">
     <use style="fill:#addc30;stroke:#addc30;" x="872.710083" xlink:href="#C0_0_8a16943cb7" y="174.643736"/>
    </g>
    <g clip-path="url(#p85dc09ff09)">
     <use style="fill:#addc30;stroke:#addc30;" x="900.207657" xlink:href="#C0_0_8a16943cb7" y="234.304027"/>
    </g>
    <g clip-path="url(#p85dc09ff09)">
     <use style="fill:#3b528b;stroke:#3b528b;" x="874.921302" xlink:href="#C0_0_8a16943cb7" y="272.629749"/>
    </g>
    <g clip-path="url(#p85dc09ff09)">
     <use style="fill:#3b528b;stroke:#3b528b;" x="932.489636" xlink:href="#C0_0_8a16943cb7" y="290.844429"/>
    </g>
    <g clip-path="url(#p85dc09ff09)">
     <use style="fill:#472d7b;stroke:#472d7b;" x="321.274851" xlink:href="#C0_0_8a16943cb7" y="206.741185"/>
    </g>
    <g clip-path="url(#p85dc09ff09)">
     <use style="fill:#fde725;stroke:#fde725;" x="270.179065" xlink:href="#C0_0_8a16943cb7" y="279.661465"/>
    </g>
    <g clip-path="url(#p85dc09ff09)">
     <use style="fill:#fde725;stroke:#fde725;" x="174.510364" xlink:href="#C0_0_8a16943cb7" y="320.902901"/>
    </g>
    <g clip-path="url(#p85dc09ff09)">
     <use style="fill:#2c728e;stroke:#2c728e;" x="634.866988" xlink:href="#C0_0_8a16943cb7" y="112.878735"/>
    </g>
    <g clip-path="url(#p85dc09ff09)">
     <use style="fill:#2c728e;stroke:#2c728e;" x="596.077531" xlink:href="#C0_0_8a16943cb7" y="146.877565"/>
    </g>
    <g clip-path="url(#p85dc09ff09)">
     <use style="fill:#2c728e;stroke:#2c728e;" x="670.592743" xlink:href="#C0_0_8a16943cb7" y="137.103123"/>
    </g>
    <g clip-path="url(#p85dc09ff09)">
     <use style="fill:#2c728e;stroke:#2c728e;" x="665.919116" xlink:href="#C0_0_8a16943cb7" y="169.750416"/>
    </g>
    <g clip-path="url(#p85dc09ff09)">
     <use style="fill:#2c728e;stroke:#2c728e;" x="535.237461" xlink:href="#C0_0_8a16943cb7" y="129.231033"/>
    </g>
    <g clip-path="url(#p85dc09ff09)">
     <use style="fill:#2c728e;stroke:#2c728e;" x="554.380468" xlink:href="#C0_0_8a16943cb7" y="90.69163"/>
    </g>
    <g clip-path="url(#p85dc09ff09)">
     <use style="fill:#fde725;stroke:#fde725;" x="180.078937" xlink:href="#C0_0_8a16943cb7" y="200.401608"/>
    </g>
   </g>
   <g id="patch_3">
    <path d="M 135 512.64 
L 135 69.12 
" style="fill:none;stroke:#ffffff;stroke-linecap:square;stroke-linejoin:miter;stroke-width:1.25;"/>
   </g>
   <g id="patch_4">
    <path d="M 972 512.64 
L 972 69.12 
" style="fill:none;stroke:#ffffff;stroke-linecap:square;stroke-linejoin:miter;stroke-width:1.25;"/>
   </g>
   <g id="patch_5">
    <path d="M 135 512.64 
L 972 512.64 
" style="fill:none;stroke:#ffffff;stroke-linecap:square;stroke-linejoin:miter;stroke-width:1.25;"/>
   </g>
   <g id="patch_6">
    <path d="M 135 69.12 
L 972 69.12 
" style="fill:none;stroke:#ffffff;stroke-linecap:square;stroke-linejoin:miter;stroke-width:1.25;"/>
   </g>
   <g id="text_17">
    <!-- SEC31 -->
    <defs>
     <path d="M 53.515625 70.515625 
L 53.515625 60.890625 
Q 47.90625 63.578125 42.921875 64.890625 
Q 37.9375 66.21875 33.296875 66.21875 
Q 25.25 66.21875 20.875 63.09375 
Q 16.5 59.96875 16.5 54.203125 
Q 16.5 49.359375 19.40625 46.890625 
Q 22.3125 44.4375 30.421875 42.921875 
L 36.375 41.703125 
Q 47.40625 39.59375 52.65625 34.296875 
Q 57.90625 29 57.90625 20.125 
Q 57.90625 9.515625 50.796875 4.046875 
Q 43.703125 -1.421875 29.984375 -1.421875 
Q 24.8125 -1.421875 18.96875 -0.25 
Q 13.140625 0.921875 6.890625 3.21875 
L 6.890625 13.375 
Q 12.890625 10.015625 18.65625 8.296875 
Q 24.421875 6.59375 29.984375 6.59375 
Q 38.421875 6.59375 43.015625 9.90625 
Q 47.609375 13.234375 47.609375 19.390625 
Q 47.609375 24.75 44.3125 27.78125 
Q 41.015625 30.8125 33.5 32.328125 
L 27.484375 33.5 
Q 16.453125 35.6875 11.515625 40.375 
Q 6.59375 45.0625 6.59375 53.421875 
Q 6.59375 63.09375 13.40625 68.65625 
Q 20.21875 74.21875 32.171875 74.21875 
Q 37.3125 74.21875 42.625 73.28125 
Q 47.953125 72.359375 53.515625 70.515625 
z
" id="DejaVuSans-53"/>
     <path d="M 9.8125 72.90625 
L 55.90625 72.90625 
L 55.90625 64.59375 
L 19.671875 64.59375 
L 19.671875 43.015625 
L 54.390625 43.015625 
L 54.390625 34.71875 
L 19.671875 34.71875 
L 19.671875 8.296875 
L 56.78125 8.296875 
L 56.78125 0 
L 9.8125 0 
z
" id="DejaVuSans-45"/>
     <path d="M 64.40625 67.28125 
L 64.40625 56.890625 
Q 59.421875 61.53125 53.78125 63.8125 
Q 48.140625 66.109375 41.796875 66.109375 
Q 29.296875 66.109375 22.65625 58.46875 
Q 16.015625 50.828125 16.015625 36.375 
Q 16.015625 21.96875 22.65625 14.328125 
Q 29.296875 6.6875 41.796875 6.6875 
Q 48.140625 6.6875 53.78125 8.984375 
Q 59.421875 11.28125 64.40625 15.921875 
L 64.40625 5.609375 
Q 59.234375 2.09375 53.4375 0.328125 
Q 47.65625 -1.421875 41.21875 -1.421875 
Q 24.65625 -1.421875 15.125 8.703125 
Q 5.609375 18.84375 5.609375 36.375 
Q 5.609375 53.953125 15.125 64.078125 
Q 24.65625 74.21875 41.21875 74.21875 
Q 47.75 74.21875 53.53125 72.484375 
Q 59.328125 70.75 64.40625 67.28125 
z
" id="DejaVuSans-43"/>
     <path d="M 40.578125 39.3125 
Q 47.65625 37.796875 51.625 33 
Q 55.609375 28.21875 55.609375 21.1875 
Q 55.609375 10.40625 48.1875 4.484375 
Q 40.765625 -1.421875 27.09375 -1.421875 
Q 22.515625 -1.421875 17.65625 -0.515625 
Q 12.796875 0.390625 7.625 2.203125 
L 7.625 11.71875 
Q 11.71875 9.328125 16.59375 8.109375 
Q 21.484375 6.890625 26.8125 6.890625 
Q 36.078125 6.890625 40.9375 10.546875 
Q 45.796875 14.203125 45.796875 21.1875 
Q 45.796875 27.640625 41.28125 31.265625 
Q 36.765625 34.90625 28.71875 34.90625 
L 20.21875 34.90625 
L 20.21875 43.015625 
L 29.109375 43.015625 
Q 36.375 43.015625 40.234375 45.921875 
Q 44.09375 48.828125 44.09375 54.296875 
Q 44.09375 59.90625 40.109375 62.90625 
Q 36.140625 65.921875 28.71875 65.921875 
Q 24.65625 65.921875 20.015625 65.03125 
Q 15.375 64.15625 9.8125 62.3125 
L 9.8125 71.09375 
Q 15.4375 72.65625 20.34375 73.4375 
Q 25.25 74.21875 29.59375 74.21875 
Q 40.828125 74.21875 47.359375 69.109375 
Q 53.90625 64.015625 53.90625 55.328125 
Q 53.90625 49.265625 50.4375 45.09375 
Q 46.96875 40.921875 40.578125 39.3125 
z
" id="DejaVuSans-33"/>
     <path d="M 12.40625 8.296875 
L 28.515625 8.296875 
L 28.515625 63.921875 
L 10.984375 60.40625 
L 10.984375 69.390625 
L 28.421875 72.90625 
L 38.28125 72.90625 
L 38.28125 8.296875 
L 54.390625 8.296875 
L 54.390625 0 
L 12.40625 0 
z
" id="DejaVuSans-31"/>
    </defs>
    <g style="fill:#262626;" transform="translate(242.106517 221.600182)scale(0.12 -0.12)">
     <use xlink:href="#DejaVuSans-53"/>
     <use x="63.476562" xlink:href="#DejaVuSans-45"/>
     <use x="126.660156" xlink:href="#DejaVuSans-43"/>
     <use x="196.484375" xlink:href="#DejaVuSans-33"/>
     <use x="260.107422" xlink:href="#DejaVuSans-31"/>
    </g>
   </g>
   <g id="text_18">
    <!-- SEC13 -->
    <g style="fill:#262626;" transform="translate(384.751231 214.179084)scale(0.12 -0.12)">
     <use xlink:href="#DejaVuSans-53"/>
     <use x="63.476562" xlink:href="#DejaVuSans-45"/>
     <use x="126.660156" xlink:href="#DejaVuSans-43"/>
     <use x="196.484375" xlink:href="#DejaVuSans-31"/>
     <use x="260.107422" xlink:href="#DejaVuSans-33"/>
    </g>
   </g>
   <g id="text_19">
    <!-- SEC16 -->
    <g style="fill:#262626;" transform="translate(609.616651 474.658023)scale(0.12 -0.12)">
     <use xlink:href="#DejaVuSans-53"/>
     <use x="63.476562" xlink:href="#DejaVuSans-45"/>
     <use x="126.660156" xlink:href="#DejaVuSans-43"/>
     <use x="196.484375" xlink:href="#DejaVuSans-31"/>
     <use x="260.107422" xlink:href="#DejaVuSans-36"/>
    </g>
   </g>
   <g id="text_20">
    <!-- A-COP -->
    <defs>
     <path d="M 34.1875 63.1875 
L 20.796875 26.90625 
L 47.609375 26.90625 
z
M 28.609375 72.90625 
L 39.796875 72.90625 
L 67.578125 0 
L 57.328125 0 
L 50.6875 18.703125 
L 17.828125 18.703125 
L 11.1875 0 
L 0.78125 0 
z
" id="DejaVuSans-41"/>
     <path d="M 4.890625 31.390625 
L 31.203125 31.390625 
L 31.203125 23.390625 
L 4.890625 23.390625 
z
" id="DejaVuSans-2d"/>
     <path d="M 39.40625 66.21875 
Q 28.65625 66.21875 22.328125 58.203125 
Q 16.015625 50.203125 16.015625 36.375 
Q 16.015625 22.609375 22.328125 14.59375 
Q 28.65625 6.59375 39.40625 6.59375 
Q 50.140625 6.59375 56.421875 14.59375 
Q 62.703125 22.609375 62.703125 36.375 
Q 62.703125 50.203125 56.421875 58.203125 
Q 50.140625 66.21875 39.40625 66.21875 
z
M 39.40625 74.21875 
Q 54.734375 74.21875 63.90625 63.9375 
Q 73.09375 53.65625 73.09375 36.375 
Q 73.09375 19.140625 63.90625 8.859375 
Q 54.734375 -1.421875 39.40625 -1.421875 
Q 24.03125 -1.421875 14.8125 8.828125 
Q 5.609375 19.09375 5.609375 36.375 
Q 5.609375 53.65625 14.8125 63.9375 
Q 24.03125 74.21875 39.40625 74.21875 
z
" id="DejaVuSans-4f"/>
     <path d="M 19.671875 64.796875 
L 19.671875 37.40625 
L 32.078125 37.40625 
Q 38.96875 37.40625 42.71875 40.96875 
Q 46.484375 44.53125 46.484375 51.125 
Q 46.484375 57.671875 42.71875 61.234375 
Q 38.96875 64.796875 32.078125 64.796875 
z
M 9.8125 72.90625 
L 32.078125 72.90625 
Q 44.34375 72.90625 50.609375 67.359375 
Q 56.890625 61.8125 56.890625 51.125 
Q 56.890625 40.328125 50.609375 34.8125 
Q 44.34375 29.296875 32.078125 29.296875 
L 19.671875 29.296875 
L 19.671875 0 
L 9.8125 0 
z
" id="DejaVuSans-50"/>
    </defs>
    <g style="fill:#262626;" transform="translate(247.680592 334.830206)scale(0.12 -0.12)">
     <use xlink:href="#DejaVuSans-41"/>
     <use x="68.376953" xlink:href="#DejaVuSans-2d"/>
     <use x="104.460938" xlink:href="#DejaVuSans-43"/>
     <use x="174.285156" xlink:href="#DejaVuSans-4f"/>
     <use x="252.996094" xlink:href="#DejaVuSans-50"/>
    </g>
   </g>
   <g id="text_21">
    <!-- BP-COP -->
    <defs>
     <path d="M 19.671875 34.8125 
L 19.671875 8.109375 
L 35.5 8.109375 
Q 43.453125 8.109375 47.28125 11.40625 
Q 51.125 14.703125 51.125 21.484375 
Q 51.125 28.328125 47.28125 31.5625 
Q 43.453125 34.8125 35.5 34.8125 
z
M 19.671875 64.796875 
L 19.671875 42.828125 
L 34.28125 42.828125 
Q 41.5 42.828125 45.03125 45.53125 
Q 48.578125 48.25 48.578125 53.8125 
Q 48.578125 59.328125 45.03125 62.0625 
Q 41.5 64.796875 34.28125 64.796875 
z
M 9.8125 72.90625 
L 35.015625 72.90625 
Q 46.296875 72.90625 52.390625 68.21875 
Q 58.5 63.53125 58.5 54.890625 
Q 58.5 48.1875 55.375 44.234375 
Q 52.25 40.28125 46.1875 39.3125 
Q 53.46875 37.75 57.5 32.78125 
Q 61.53125 27.828125 61.53125 20.40625 
Q 61.53125 10.640625 54.890625 5.3125 
Q 48.25 0 35.984375 0 
L 9.8125 0 
z
" id="DejaVuSans-42"/>
    </defs>
    <g style="fill:#262626;" transform="translate(362.092379 336.614493)scale(0.12 -0.12)">
     <use xlink:href="#DejaVuSans-42"/>
     <use x="68.603516" xlink:href="#DejaVuSans-50"/>
     <use x="128.875" xlink:href="#DejaVuSans-2d"/>
     <use x="164.958984" xlink:href="#DejaVuSans-43"/>
     <use x="234.783203" xlink:href="#DejaVuSans-4f"/>
     <use x="313.494141" xlink:href="#DejaVuSans-50"/>
    </g>
   </g>
   <g id="text_22">
    <!-- E-COP -->
    <g style="fill:#262626;" transform="translate(803.771066 390.564203)scale(0.12 -0.12)">
     <use xlink:href="#DejaVuSans-45"/>
     <use x="63.183594" xlink:href="#DejaVuSans-2d"/>
     <use x="99.267578" xlink:href="#DejaVuSans-43"/>
     <use x="169.091797" xlink:href="#DejaVuSans-4f"/>
     <use x="247.802734" xlink:href="#DejaVuSans-50"/>
    </g>
   </g>
   <g id="text_23">
    <!-- B-COP -->
    <g style="fill:#262626;" transform="translate(876.219555 196.706217)scale(0.12 -0.12)">
     <use xlink:href="#DejaVuSans-42"/>
     <use x="68.603516" xlink:href="#DejaVuSans-2d"/>
     <use x="104.6875" xlink:href="#DejaVuSans-43"/>
     <use x="174.511719" xlink:href="#DejaVuSans-4f"/>
     <use x="253.222656" xlink:href="#DejaVuSans-50"/>
    </g>
   </g>
   <g id="text_24">
    <!-- Y-COP -->
    <defs>
     <path d="M -0.203125 72.90625 
L 10.40625 72.90625 
L 30.609375 42.921875 
L 50.6875 72.90625 
L 61.28125 72.90625 
L 35.5 34.71875 
L 35.5 0 
L 25.59375 0 
L 25.59375 34.71875 
z
" id="DejaVuSans-59"/>
    </defs>
    <g style="fill:#262626;" transform="translate(820.940543 134.748238)scale(0.12 -0.12)">
     <use xlink:href="#DejaVuSans-59"/>
     <use x="60.912109" xlink:href="#DejaVuSans-2d"/>
     <use x="96.996094" xlink:href="#DejaVuSans-43"/>
     <use x="166.820312" xlink:href="#DejaVuSans-4f"/>
     <use x="245.53125" xlink:href="#DejaVuSans-50"/>
    </g>
   </g>
   <g id="text_25">
    <!-- NIC96 -->
    <defs>
     <path d="M 9.8125 72.90625 
L 23.09375 72.90625 
L 55.421875 11.921875 
L 55.421875 72.90625 
L 64.984375 72.90625 
L 64.984375 0 
L 51.703125 0 
L 19.390625 60.984375 
L 19.390625 0 
L 9.8125 0 
z
" id="DejaVuSans-4e"/>
     <path d="M 9.8125 72.90625 
L 19.671875 72.90625 
L 19.671875 0 
L 9.8125 0 
z
" id="DejaVuSans-49"/>
     <path d="M 10.984375 1.515625 
L 10.984375 10.5 
Q 14.703125 8.734375 18.5 7.8125 
Q 22.3125 6.890625 25.984375 6.890625 
Q 35.75 6.890625 40.890625 13.453125 
Q 46.046875 20.015625 46.78125 33.40625 
Q 43.953125 29.203125 39.59375 26.953125 
Q 35.25 24.703125 29.984375 24.703125 
Q 19.046875 24.703125 12.671875 31.3125 
Q 6.296875 37.9375 6.296875 49.421875 
Q 6.296875 60.640625 12.9375 67.421875 
Q 19.578125 74.21875 30.609375 74.21875 
Q 43.265625 74.21875 49.921875 64.515625 
Q 56.59375 54.828125 56.59375 36.375 
Q 56.59375 19.140625 48.40625 8.859375 
Q 40.234375 -1.421875 26.421875 -1.421875 
Q 22.703125 -1.421875 18.890625 -0.6875 
Q 15.09375 0.046875 10.984375 1.515625 
z
M 30.609375 32.421875 
Q 37.25 32.421875 41.125 36.953125 
Q 45.015625 41.5 45.015625 49.421875 
Q 45.015625 57.28125 41.125 61.84375 
Q 37.25 66.40625 30.609375 66.40625 
Q 23.96875 66.40625 20.09375 61.84375 
Q 16.21875 57.28125 16.21875 49.421875 
Q 16.21875 41.5 20.09375 36.953125 
Q 23.96875 32.421875 30.609375 32.421875 
z
" id="DejaVuSans-39"/>
    </defs>
    <g style="fill:#262626;" transform="translate(692.466097 454.125203)scale(0.12 -0.12)">
     <use xlink:href="#DejaVuSans-4e"/>
     <use x="74.804688" xlink:href="#DejaVuSans-49"/>
     <use x="104.296875" xlink:href="#DejaVuSans-43"/>
     <use x="174.121094" xlink:href="#DejaVuSans-39"/>
     <use x="237.744141" xlink:href="#DejaVuSans-36"/>
    </g>
   </g>
   <g id="text_26">
    <!-- NUP85 -->
    <defs>
     <path d="M 8.6875 72.90625 
L 18.609375 72.90625 
L 18.609375 28.609375 
Q 18.609375 16.890625 22.84375 11.734375 
Q 27.09375 6.59375 36.625 6.59375 
Q 46.09375 6.59375 50.34375 11.734375 
Q 54.59375 16.890625 54.59375 28.609375 
L 54.59375 72.90625 
L 64.5 72.90625 
L 64.5 27.390625 
Q 64.5 13.140625 57.4375 5.859375 
Q 50.390625 -1.421875 36.625 -1.421875 
Q 22.796875 -1.421875 15.734375 5.859375 
Q 8.6875 13.140625 8.6875 27.390625 
z
" id="DejaVuSans-55"/>
     <path d="M 10.796875 72.90625 
L 49.515625 72.90625 
L 49.515625 64.59375 
L 19.828125 64.59375 
L 19.828125 46.734375 
Q 21.96875 47.46875 24.109375 47.828125 
Q 26.265625 48.1875 28.421875 48.1875 
Q 40.625 48.1875 47.75 41.5 
Q 54.890625 34.8125 54.890625 23.390625 
Q 54.890625 11.625 47.5625 5.09375 
Q 40.234375 -1.421875 26.90625 -1.421875 
Q 22.3125 -1.421875 17.546875 -0.640625 
Q 12.796875 0.140625 7.71875 1.703125 
L 7.71875 11.625 
Q 12.109375 9.234375 16.796875 8.0625 
Q 21.484375 6.890625 26.703125 6.890625 
Q 35.15625 6.890625 40.078125 11.328125 
Q 45.015625 15.765625 45.015625 23.390625 
Q 45.015625 31 40.078125 35.4375 
Q 35.15625 39.890625 26.703125 39.890625 
Q 22.75 39.890625 18.8125 39.015625 
Q 14.890625 38.140625 10.796875 36.28125 
z
" id="DejaVuSans-35"/>
    </defs>
    <g style="fill:#262626;" transform="translate(516.724592 483.06837)scale(0.12 -0.12)">
     <use xlink:href="#DejaVuSans-4e"/>
     <use x="74.804688" xlink:href="#DejaVuSans-55"/>
     <use x="147.998047" xlink:href="#DejaVuSans-50"/>
     <use x="208.300781" xlink:href="#DejaVuSans-38"/>
     <use x="271.923828" xlink:href="#DejaVuSans-35"/>
    </g>
   </g>
   <g id="text_27">
    <!-- NUP120 -->
    <g style="fill:#262626;" transform="translate(398.956022 144.654223)scale(0.12 -0.12)">
     <use xlink:href="#DejaVuSans-4e"/>
     <use x="74.804688" xlink:href="#DejaVuSans-55"/>
     <use x="147.998047" xlink:href="#DejaVuSans-50"/>
     <use x="208.300781" xlink:href="#DejaVuSans-31"/>
     <use x="271.923828" xlink:href="#DejaVuSans-32"/>
     <use x="335.546875" xlink:href="#DejaVuSans-30"/>
    </g>
   </g>
   <g id="text_28">
    <!-- NUP145 -->
    <g style="fill:#262626;" transform="translate(753.997434 436.989629)scale(0.12 -0.12)">
     <use xlink:href="#DejaVuSans-4e"/>
     <use x="74.804688" xlink:href="#DejaVuSans-55"/>
     <use x="147.998047" xlink:href="#DejaVuSans-50"/>
     <use x="208.300781" xlink:href="#DejaVuSans-31"/>
     <use x="271.923828" xlink:href="#DejaVuSans-34"/>
     <use x="335.546875" xlink:href="#DejaVuSans-35"/>
    </g>
   </g>
   <g id="text_29">
    <!-- NUP170 -->
    <defs>
     <path d="M 8.203125 72.90625 
L 55.078125 72.90625 
L 55.078125 68.703125 
L 28.609375 0 
L 18.3125 0 
L 43.21875 64.59375 
L 8.203125 64.59375 
z
" id="DejaVuSans-37"/>
    </defs>
    <g style="fill:#262626;" transform="translate(265.625652 134.186835)scale(0.12 -0.12)">
     <use xlink:href="#DejaVuSans-4e"/>
     <use x="74.804688" xlink:href="#DejaVuSans-55"/>
     <use x="147.998047" xlink:href="#DejaVuSans-50"/>
     <use x="208.300781" xlink:href="#DejaVuSans-31"/>
     <use x="271.923828" xlink:href="#DejaVuSans-37"/>
     <use x="335.546875" xlink:href="#DejaVuSans-30"/>
    </g>
   </g>
   <g id="text_30">
    <!-- NUP133 -->
    <g style="fill:#262626;" transform="translate(365.347807 104.742939)scale(0.12 -0.12)">
     <use xlink:href="#DejaVuSans-4e"/>
     <use x="74.804688" xlink:href="#DejaVuSans-55"/>
     <use x="147.998047" xlink:href="#DejaVuSans-50"/>
     <use x="208.300781" xlink:href="#DejaVuSans-31"/>
     <use x="271.923828" xlink:href="#DejaVuSans-33"/>
     <use x="335.546875" xlink:href="#DejaVuSans-33"/>
    </g>
   </g>
   <g id="text_31">
    <!-- NUP192 -->
    <g style="fill:#262626;" transform="translate(906.185054 332.569466)scale(0.12 -0.12)">
     <use xlink:href="#DejaVuSans-4e"/>
     <use x="74.804688" xlink:href="#DejaVuSans-55"/>
     <use x="147.998047" xlink:href="#DejaVuSans-50"/>
     <use x="208.300781" xlink:href="#DejaVuSans-31"/>
     <use x="271.923828" xlink:href="#DejaVuSans-39"/>
     <use x="335.546875" xlink:href="#DejaVuSans-32"/>
    </g>
   </g>
   <g id="text_32">
    <!-- NUP188 -->
    <g style="fill:#262626;" transform="translate(885.316092 362.87997)scale(0.12 -0.12)">
     <use xlink:href="#DejaVuSans-4e"/>
     <use x="74.804688" xlink:href="#DejaVuSans-55"/>
     <use x="147.998047" xlink:href="#DejaVuSans-50"/>
     <use x="208.300781" xlink:href="#DejaVuSans-31"/>
     <use x="271.923828" xlink:href="#DejaVuSans-38"/>
     <use x="335.546875" xlink:href="#DejaVuSans-38"/>
    </g>
   </g>
   <g id="text_33">
    <!-- SEH1 -->
    <defs>
     <path d="M 9.8125 72.90625 
L 19.671875 72.90625 
L 19.671875 43.015625 
L 55.515625 43.015625 
L 55.515625 72.90625 
L 65.375 72.90625 
L 65.375 0 
L 55.515625 0 
L 55.515625 34.71875 
L 19.671875 34.71875 
L 19.671875 0 
L 9.8125 0 
z
" id="DejaVuSans-48"/>
    </defs>
    <g style="fill:#262626;" transform="translate(378.531637 225.084261)scale(0.12 -0.12)">
     <use xlink:href="#DejaVuSans-53"/>
     <use x="63.476562" xlink:href="#DejaVuSans-45"/>
     <use x="126.660156" xlink:href="#DejaVuSans-48"/>
     <use x="201.855469" xlink:href="#DejaVuSans-31"/>
    </g>
   </g>
   <g id="text_34">
    <!-- SEA4 -->
    <g style="fill:#262626;" transform="translate(198.980573 253.05842)scale(0.12 -0.12)">
     <use xlink:href="#DejaVuSans-53"/>
     <use x="63.476562" xlink:href="#DejaVuSans-45"/>
     <use x="126.660156" xlink:href="#DejaVuSans-41"/>
     <use x="195.068359" xlink:href="#DejaVuSans-34"/>
    </g>
   </g>
   <g id="text_35">
    <!-- IFT172 -->
    <defs>
     <path d="M 9.8125 72.90625 
L 51.703125 72.90625 
L 51.703125 64.59375 
L 19.671875 64.59375 
L 19.671875 43.109375 
L 48.578125 43.109375 
L 48.578125 34.8125 
L 19.671875 34.8125 
L 19.671875 0 
L 9.8125 0 
z
" id="DejaVuSans-46"/>
     <path d="M -0.296875 72.90625 
L 61.375 72.90625 
L 61.375 64.59375 
L 35.5 64.59375 
L 35.5 0 
L 25.59375 0 
L 25.59375 64.59375 
L -0.296875 64.59375 
z
" id="DejaVuSans-54"/>
    </defs>
    <g style="fill:#262626;" transform="translate(318.500338 416.291251)scale(0.12 -0.12)">
     <use xlink:href="#DejaVuSans-49"/>
     <use x="29.492188" xlink:href="#DejaVuSans-46"/>
     <use x="86.996094" xlink:href="#DejaVuSans-54"/>
     <use x="148.080078" xlink:href="#DejaVuSans-31"/>
     <use x="211.703125" xlink:href="#DejaVuSans-37"/>
     <use x="275.326172" xlink:href="#DejaVuSans-32"/>
    </g>
   </g>
   <g id="text_36">
    <!-- IFT180 -->
    <g style="fill:#262626;" transform="translate(321.920085 320.051835)scale(0.12 -0.12)">
     <use xlink:href="#DejaVuSans-49"/>
     <use x="29.492188" xlink:href="#DejaVuSans-46"/>
     <use x="86.996094" xlink:href="#DejaVuSans-54"/>
     <use x="148.080078" xlink:href="#DejaVuSans-31"/>
     <use x="211.703125" xlink:href="#DejaVuSans-38"/>
     <use x="275.326172" xlink:href="#DejaVuSans-30"/>
    </g>
   </g>
   <g id="text_37">
    <!-- IFT140 -->
    <g style="fill:#262626;" transform="translate(417.048632 399.04487)scale(0.12 -0.12)">
     <use xlink:href="#DejaVuSans-49"/>
     <use x="29.492188" xlink:href="#DejaVuSans-46"/>
     <use x="86.996094" xlink:href="#DejaVuSans-54"/>
     <use x="148.080078" xlink:href="#DejaVuSans-31"/>
     <use x="211.703125" xlink:href="#DejaVuSans-34"/>
     <use x="275.326172" xlink:href="#DejaVuSans-30"/>
    </g>
   </g>
   <g id="text_38">
    <!-- IFT122 -->
    <g style="fill:#262626;" transform="translate(312.836372 366.159211)scale(0.12 -0.12)">
     <use xlink:href="#DejaVuSans-49"/>
     <use x="29.492188" xlink:href="#DejaVuSans-46"/>
     <use x="86.996094" xlink:href="#DejaVuSans-54"/>
     <use x="148.080078" xlink:href="#DejaVuSans-31"/>
     <use x="211.703125" xlink:href="#DejaVuSans-32"/>
     <use x="275.326172" xlink:href="#DejaVuSans-32"/>
    </g>
   </g>
   <g id="text_39">
    <!-- WDR19 -->
    <defs>
     <path d="M 3.328125 72.90625 
L 13.28125 72.90625 
L 28.609375 11.28125 
L 43.890625 72.90625 
L 54.984375 72.90625 
L 70.3125 11.28125 
L 85.59375 72.90625 
L 95.609375 72.90625 
L 77.296875 0 
L 64.890625 0 
L 49.515625 63.28125 
L 33.984375 0 
L 21.578125 0 
z
" id="DejaVuSans-57"/>
     <path d="M 19.671875 64.796875 
L 19.671875 8.109375 
L 31.59375 8.109375 
Q 46.6875 8.109375 53.6875 14.9375 
Q 60.6875 21.78125 60.6875 36.53125 
Q 60.6875 51.171875 53.6875 57.984375 
Q 46.6875 64.796875 31.59375 64.796875 
z
M 9.8125 72.90625 
L 30.078125 72.90625 
Q 51.265625 72.90625 61.171875 64.09375 
Q 71.09375 55.28125 71.09375 36.53125 
Q 71.09375 17.671875 61.125 8.828125 
Q 51.171875 0 30.078125 0 
L 9.8125 0 
z
" id="DejaVuSans-44"/>
     <path d="M 44.390625 34.1875 
Q 47.5625 33.109375 50.5625 29.59375 
Q 53.5625 26.078125 56.59375 19.921875 
L 66.609375 0 
L 56 0 
L 46.6875 18.703125 
Q 43.0625 26.03125 39.671875 28.421875 
Q 36.28125 30.8125 30.421875 30.8125 
L 19.671875 30.8125 
L 19.671875 0 
L 9.8125 0 
L 9.8125 72.90625 
L 32.078125 72.90625 
Q 44.578125 72.90625 50.734375 67.671875 
Q 56.890625 62.453125 56.890625 51.90625 
Q 56.890625 45.015625 53.6875 40.46875 
Q 50.484375 35.9375 44.390625 34.1875 
z
M 19.671875 64.796875 
L 19.671875 38.921875 
L 32.078125 38.921875 
Q 39.203125 38.921875 42.84375 42.21875 
Q 46.484375 45.515625 46.484375 51.90625 
Q 46.484375 58.296875 42.84375 61.546875 
Q 39.203125 64.796875 32.078125 64.796875 
z
" id="DejaVuSans-52"/>
    </defs>
    <g style="fill:#262626;" transform="translate(362.543044 394.629635)scale(0.12 -0.12)">
     <use xlink:href="#DejaVuSans-57"/>
     <use x="98.876953" xlink:href="#DejaVuSans-44"/>
     <use x="175.878906" xlink:href="#DejaVuSans-52"/>
     <use x="245.361328" xlink:href="#DejaVuSans-31"/>
     <use x="308.984375" xlink:href="#DejaVuSans-39"/>
    </g>
   </g>
   <g id="text_40">
    <!-- WDR35 -->
    <g style="fill:#262626;" transform="translate(252.465212 372.409295)scale(0.12 -0.12)">
     <use xlink:href="#DejaVuSans-57"/>
     <use x="98.876953" xlink:href="#DejaVuSans-44"/>
     <use x="175.878906" xlink:href="#DejaVuSans-52"/>
     <use x="245.361328" xlink:href="#DejaVuSans-33"/>
     <use x="308.984375" xlink:href="#DejaVuSans-35"/>
    </g>
   </g>
   <g id="text_41">
    <!-- VPS41 -->
    <defs>
     <path d="M 28.609375 0 
L 0.78125 72.90625 
L 11.078125 72.90625 
L 34.1875 11.53125 
L 57.328125 72.90625 
L 67.578125 72.90625 
L 39.796875 0 
z
" id="DejaVuSans-56"/>
    </defs>
    <g style="fill:#262626;" transform="translate(478.99045 222.985356)scale(0.12 -0.12)">
     <use xlink:href="#DejaVuSans-56"/>
     <use x="68.408203" xlink:href="#DejaVuSans-50"/>
     <use x="128.710938" xlink:href="#DejaVuSans-53"/>
     <use x="192.1875" xlink:href="#DejaVuSans-34"/>
     <use x="255.810547" xlink:href="#DejaVuSans-31"/>
    </g>
   </g>
   <g id="text_42">
    <!-- VPS39 -->
    <g style="fill:#262626;" transform="translate(591.668808 238.346913)scale(0.12 -0.12)">
     <use xlink:href="#DejaVuSans-56"/>
     <use x="68.408203" xlink:href="#DejaVuSans-50"/>
     <use x="128.710938" xlink:href="#DejaVuSans-53"/>
     <use x="192.1875" xlink:href="#DejaVuSans-33"/>
     <use x="255.810547" xlink:href="#DejaVuSans-39"/>
    </g>
   </g>
   <g id="text_43">
    <!-- VPS18 -->
    <g style="fill:#262626;" transform="translate(542.874003 313.930951)scale(0.12 -0.12)">
     <use xlink:href="#DejaVuSans-56"/>
     <use x="68.408203" xlink:href="#DejaVuSans-50"/>
     <use x="128.710938" xlink:href="#DejaVuSans-53"/>
     <use x="192.1875" xlink:href="#DejaVuSans-31"/>
     <use x="255.810547" xlink:href="#DejaVuSans-38"/>
    </g>
   </g>
   <g id="text_44">
    <!-- VPS11 -->
    <g style="fill:#262626;" transform="translate(477.902418 286.317703)scale(0.12 -0.12)">
     <use xlink:href="#DejaVuSans-56"/>
     <use x="68.408203" xlink:href="#DejaVuSans-50"/>
     <use x="128.710938" xlink:href="#DejaVuSans-53"/>
     <use x="192.1875" xlink:href="#DejaVuSans-31"/>
     <use x="255.810547" xlink:href="#DejaVuSans-31"/>
    </g>
   </g>
   <g id="text_45">
    <!-- VPS16 -->
    <g style="fill:#262626;" transform="translate(327.574024 156.536078)scale(0.12 -0.12)">
     <use xlink:href="#DejaVuSans-56"/>
     <use x="68.408203" xlink:href="#DejaVuSans-50"/>
     <use x="128.710938" xlink:href="#DejaVuSans-53"/>
     <use x="192.1875" xlink:href="#DejaVuSans-31"/>
     <use x="255.810547" xlink:href="#DejaVuSans-36"/>
    </g>
   </g>
   <g id="text_46">
    <!-- VPS8 -->
    <g style="fill:#262626;" transform="translate(614.373892 271.718181)scale(0.12 -0.12)">
     <use xlink:href="#DejaVuSans-56"/>
     <use x="68.408203" xlink:href="#DejaVuSans-50"/>
     <use x="128.710938" xlink:href="#DejaVuSans-53"/>
     <use x="192.1875" xlink:href="#DejaVuSans-38"/>
    </g>
   </g>
   <g id="text_47">
    <!-- VPS3 -->
    <g style="fill:#262626;" transform="translate(539.539063 363.816152)scale(0.12 -0.12)">
     <use xlink:href="#DejaVuSans-56"/>
     <use x="68.408203" xlink:href="#DejaVuSans-50"/>
     <use x="128.710938" xlink:href="#DejaVuSans-53"/>
     <use x="192.1875" xlink:href="#DejaVuSans-33"/>
    </g>
   </g>
   <g id="text_48">
    <!-- CHC -->
    <g style="fill:#262626;" transform="translate(664.848942 348.933059)scale(0.12 -0.12)">
     <use xlink:href="#DejaVuSans-43"/>
     <use x="69.824219" xlink:href="#DejaVuSans-48"/>
     <use x="145.019531" xlink:href="#DejaVuSans-43"/>
    </g>
   </g>
   <g id="text_49">
    <!-- AP1_beta -->
    <defs>
     <path d="M 50.984375 -16.609375 
L 50.984375 -23.578125 
L -0.984375 -23.578125 
L -0.984375 -16.609375 
z
" id="DejaVuSans-5f"/>
     <path d="M 48.6875 27.296875 
Q 48.6875 37.203125 44.609375 42.84375 
Q 40.53125 48.484375 33.40625 48.484375 
Q 26.265625 48.484375 22.1875 42.84375 
Q 18.109375 37.203125 18.109375 27.296875 
Q 18.109375 17.390625 22.1875 11.75 
Q 26.265625 6.109375 33.40625 6.109375 
Q 40.53125 6.109375 44.609375 11.75 
Q 48.6875 17.390625 48.6875 27.296875 
z
M 18.109375 46.390625 
Q 20.953125 51.265625 25.265625 53.625 
Q 29.59375 56 35.59375 56 
Q 45.5625 56 51.78125 48.09375 
Q 58.015625 40.1875 58.015625 27.296875 
Q 58.015625 14.40625 51.78125 6.484375 
Q 45.5625 -1.421875 35.59375 -1.421875 
Q 29.59375 -1.421875 25.265625 0.953125 
Q 20.953125 3.328125 18.109375 8.203125 
L 18.109375 0 
L 9.078125 0 
L 9.078125 75.984375 
L 18.109375 75.984375 
z
" id="DejaVuSans-62"/>
     <path d="M 56.203125 29.59375 
L 56.203125 25.203125 
L 14.890625 25.203125 
Q 15.484375 15.921875 20.484375 11.0625 
Q 25.484375 6.203125 34.421875 6.203125 
Q 39.59375 6.203125 44.453125 7.46875 
Q 49.3125 8.734375 54.109375 11.28125 
L 54.109375 2.78125 
Q 49.265625 0.734375 44.1875 -0.34375 
Q 39.109375 -1.421875 33.890625 -1.421875 
Q 20.796875 -1.421875 13.15625 6.1875 
Q 5.515625 13.8125 5.515625 26.8125 
Q 5.515625 40.234375 12.765625 48.109375 
Q 20.015625 56 32.328125 56 
Q 43.359375 56 49.78125 48.890625 
Q 56.203125 41.796875 56.203125 29.59375 
z
M 47.21875 32.234375 
Q 47.125 39.59375 43.09375 43.984375 
Q 39.0625 48.390625 32.421875 48.390625 
Q 24.90625 48.390625 20.390625 44.140625 
Q 15.875 39.890625 15.1875 32.171875 
z
" id="DejaVuSans-65"/>
     <path d="M 18.3125 70.21875 
L 18.3125 54.6875 
L 36.8125 54.6875 
L 36.8125 47.703125 
L 18.3125 47.703125 
L 18.3125 18.015625 
Q 18.3125 11.328125 20.140625 9.421875 
Q 21.96875 7.515625 27.59375 7.515625 
L 36.8125 7.515625 
L 36.8125 0 
L 27.59375 0 
Q 17.1875 0 13.234375 3.875 
Q 9.28125 7.765625 9.28125 18.015625 
L 9.28125 47.703125 
L 2.6875 47.703125 
L 2.6875 54.6875 
L 9.28125 54.6875 
L 9.28125 70.21875 
z
" id="DejaVuSans-74"/>
     <path d="M 34.28125 27.484375 
Q 23.390625 27.484375 19.1875 25 
Q 14.984375 22.515625 14.984375 16.5 
Q 14.984375 11.71875 18.140625 8.90625 
Q 21.296875 6.109375 26.703125 6.109375 
Q 34.1875 6.109375 38.703125 11.40625 
Q 43.21875 16.703125 43.21875 25.484375 
L 43.21875 27.484375 
z
M 52.203125 31.203125 
L 52.203125 0 
L 43.21875 0 
L 43.21875 8.296875 
Q 40.140625 3.328125 35.546875 0.953125 
Q 30.953125 -1.421875 24.3125 -1.421875 
Q 15.921875 -1.421875 10.953125 3.296875 
Q 6 8.015625 6 15.921875 
Q 6 25.140625 12.171875 29.828125 
Q 18.359375 34.515625 30.609375 34.515625 
L 43.21875 34.515625 
L 43.21875 35.40625 
Q 43.21875 41.609375 39.140625 45 
Q 35.0625 48.390625 27.6875 48.390625 
Q 23 48.390625 18.546875 47.265625 
Q 14.109375 46.140625 10.015625 43.890625 
L 10.015625 52.203125 
Q 14.9375 54.109375 19.578125 55.046875 
Q 24.21875 56 28.609375 56 
Q 40.484375 56 46.34375 49.84375 
Q 52.203125 43.703125 52.203125 31.203125 
z
" id="DejaVuSans-61"/>
    </defs>
    <g style="fill:#262626;" transform="translate(857.710083 166.643736)scale(0.12 -0.12)">
     <use xlink:href="#DejaVuSans-41"/>
     <use x="68.408203" xlink:href="#DejaVuSans-50"/>
     <use x="128.710938" xlink:href="#DejaVuSans-31"/>
     <use x="192.333984" xlink:href="#DejaVuSans-5f"/>
     <use x="242.333984" xlink:href="#DejaVuSans-62"/>
     <use x="305.810547" xlink:href="#DejaVuSans-65"/>
     <use x="367.333984" xlink:href="#DejaVuSans-74"/>
     <use x="406.542969" xlink:href="#DejaVuSans-61"/>
    </g>
   </g>
   <g id="text_50">
    <!-- AP1_gamma -->
    <defs>
     <path d="M 45.40625 27.984375 
Q 45.40625 37.75 41.375 43.109375 
Q 37.359375 48.484375 30.078125 48.484375 
Q 22.859375 48.484375 18.828125 43.109375 
Q 14.796875 37.75 14.796875 27.984375 
Q 14.796875 18.265625 18.828125 12.890625 
Q 22.859375 7.515625 30.078125 7.515625 
Q 37.359375 7.515625 41.375 12.890625 
Q 45.40625 18.265625 45.40625 27.984375 
z
M 54.390625 6.78125 
Q 54.390625 -7.171875 48.1875 -13.984375 
Q 42 -20.796875 29.203125 -20.796875 
Q 24.46875 -20.796875 20.265625 -20.09375 
Q 16.0625 -19.390625 12.109375 -17.921875 
L 12.109375 -9.1875 
Q 16.0625 -11.328125 19.921875 -12.34375 
Q 23.78125 -13.375 27.78125 -13.375 
Q 36.625 -13.375 41.015625 -8.765625 
Q 45.40625 -4.15625 45.40625 5.171875 
L 45.40625 9.625 
Q 42.625 4.78125 38.28125 2.390625 
Q 33.9375 0 27.875 0 
Q 17.828125 0 11.671875 7.65625 
Q 5.515625 15.328125 5.515625 27.984375 
Q 5.515625 40.671875 11.671875 48.328125 
Q 17.828125 56 27.875 56 
Q 33.9375 56 38.28125 53.609375 
Q 42.625 51.21875 45.40625 46.390625 
L 45.40625 54.6875 
L 54.390625 54.6875 
z
" id="DejaVuSans-67"/>
     <path d="M 52 44.1875 
Q 55.375 50.25 60.0625 53.125 
Q 64.75 56 71.09375 56 
Q 79.640625 56 84.28125 50.015625 
Q 88.921875 44.046875 88.921875 33.015625 
L 88.921875 0 
L 79.890625 0 
L 79.890625 32.71875 
Q 79.890625 40.578125 77.09375 44.375 
Q 74.3125 48.1875 68.609375 48.1875 
Q 61.625 48.1875 57.5625 43.546875 
Q 53.515625 38.921875 53.515625 30.90625 
L 53.515625 0 
L 44.484375 0 
L 44.484375 32.71875 
Q 44.484375 40.625 41.703125 44.40625 
Q 38.921875 48.1875 33.109375 48.1875 
Q 26.21875 48.1875 22.15625 43.53125 
Q 18.109375 38.875 18.109375 30.90625 
L 18.109375 0 
L 9.078125 0 
L 9.078125 54.6875 
L 18.109375 54.6875 
L 18.109375 46.1875 
Q 21.1875 51.21875 25.484375 53.609375 
Q 29.78125 56 35.6875 56 
Q 41.65625 56 45.828125 52.96875 
Q 50 49.953125 52 44.1875 
z
" id="DejaVuSans-6d"/>
    </defs>
    <g style="fill:#262626;" transform="translate(885.207657 226.304027)scale(0.12 -0.12)">
     <use xlink:href="#DejaVuSans-41"/>
     <use x="68.408203" xlink:href="#DejaVuSans-50"/>
     <use x="128.710938" xlink:href="#DejaVuSans-31"/>
     <use x="192.333984" xlink:href="#DejaVuSans-5f"/>
     <use x="242.333984" xlink:href="#DejaVuSans-67"/>
     <use x="305.810547" xlink:href="#DejaVuSans-61"/>
     <use x="367.089844" xlink:href="#DejaVuSans-6d"/>
     <use x="464.501953" xlink:href="#DejaVuSans-6d"/>
     <use x="561.914062" xlink:href="#DejaVuSans-61"/>
    </g>
   </g>
   <g id="text_51">
    <!-- importin_beta -->
    <defs>
     <path d="M 9.421875 54.6875 
L 18.40625 54.6875 
L 18.40625 0 
L 9.421875 0 
z
M 9.421875 75.984375 
L 18.40625 75.984375 
L 18.40625 64.59375 
L 9.421875 64.59375 
z
" id="DejaVuSans-69"/>
     <path d="M 18.109375 8.203125 
L 18.109375 -20.796875 
L 9.078125 -20.796875 
L 9.078125 54.6875 
L 18.109375 54.6875 
L 18.109375 46.390625 
Q 20.953125 51.265625 25.265625 53.625 
Q 29.59375 56 35.59375 56 
Q 45.5625 56 51.78125 48.09375 
Q 58.015625 40.1875 58.015625 27.296875 
Q 58.015625 14.40625 51.78125 6.484375 
Q 45.5625 -1.421875 35.59375 -1.421875 
Q 29.59375 -1.421875 25.265625 0.953125 
Q 20.953125 3.328125 18.109375 8.203125 
z
M 48.6875 27.296875 
Q 48.6875 37.203125 44.609375 42.84375 
Q 40.53125 48.484375 33.40625 48.484375 
Q 26.265625 48.484375 22.1875 42.84375 
Q 18.109375 37.203125 18.109375 27.296875 
Q 18.109375 17.390625 22.1875 11.75 
Q 26.265625 6.109375 33.40625 6.109375 
Q 40.53125 6.109375 44.609375 11.75 
Q 48.6875 17.390625 48.6875 27.296875 
z
" id="DejaVuSans-70"/>
     <path d="M 30.609375 48.390625 
Q 23.390625 48.390625 19.1875 42.75 
Q 14.984375 37.109375 14.984375 27.296875 
Q 14.984375 17.484375 19.15625 11.84375 
Q 23.34375 6.203125 30.609375 6.203125 
Q 37.796875 6.203125 41.984375 11.859375 
Q 46.1875 17.53125 46.1875 27.296875 
Q 46.1875 37.015625 41.984375 42.703125 
Q 37.796875 48.390625 30.609375 48.390625 
z
M 30.609375 56 
Q 42.328125 56 49.015625 48.375 
Q 55.71875 40.765625 55.71875 27.296875 
Q 55.71875 13.875 49.015625 6.21875 
Q 42.328125 -1.421875 30.609375 -1.421875 
Q 18.84375 -1.421875 12.171875 6.21875 
Q 5.515625 13.875 5.515625 27.296875 
Q 5.515625 40.765625 12.171875 48.375 
Q 18.84375 56 30.609375 56 
z
" id="DejaVuSans-6f"/>
     <path d="M 41.109375 46.296875 
Q 39.59375 47.171875 37.8125 47.578125 
Q 36.03125 48 33.890625 48 
Q 26.265625 48 22.1875 43.046875 
Q 18.109375 38.09375 18.109375 28.8125 
L 18.109375 0 
L 9.078125 0 
L 9.078125 54.6875 
L 18.109375 54.6875 
L 18.109375 46.1875 
Q 20.953125 51.171875 25.484375 53.578125 
Q 30.03125 56 36.53125 56 
Q 37.453125 56 38.578125 55.875 
Q 39.703125 55.765625 41.0625 55.515625 
z
" id="DejaVuSans-72"/>
     <path d="M 54.890625 33.015625 
L 54.890625 0 
L 45.90625 0 
L 45.90625 32.71875 
Q 45.90625 40.484375 42.875 44.328125 
Q 39.84375 48.1875 33.796875 48.1875 
Q 26.515625 48.1875 22.3125 43.546875 
Q 18.109375 38.921875 18.109375 30.90625 
L 18.109375 0 
L 9.078125 0 
L 9.078125 54.6875 
L 18.109375 54.6875 
L 18.109375 46.1875 
Q 21.34375 51.125 25.703125 53.5625 
Q 30.078125 56 35.796875 56 
Q 45.21875 56 50.046875 50.171875 
Q 54.890625 44.34375 54.890625 33.015625 
z
" id="DejaVuSans-6e"/>
    </defs>
    <g style="fill:#262626;" transform="translate(859.921302 264.629749)scale(0.12 -0.12)">
     <use xlink:href="#DejaVuSans-69"/>
     <use x="27.783203" xlink:href="#DejaVuSans-6d"/>
     <use x="125.195312" xlink:href="#DejaVuSans-70"/>
     <use x="188.671875" xlink:href="#DejaVuSans-6f"/>
     <use x="249.853516" xlink:href="#DejaVuSans-72"/>
     <use x="290.966797" xlink:href="#DejaVuSans-74"/>
     <use x="330.175781" xlink:href="#DejaVuSans-69"/>
     <use x="357.958984" xlink:href="#DejaVuSans-6e"/>
     <use x="421.337891" xlink:href="#DejaVuSans-5f"/>
     <use x="471.337891" xlink:href="#DejaVuSans-62"/>
     <use x="534.814453" xlink:href="#DejaVuSans-65"/>
     <use x="596.337891" xlink:href="#DejaVuSans-74"/>
     <use x="635.546875" xlink:href="#DejaVuSans-61"/>
    </g>
   </g>
   <g id="text_52">
    <!-- importin_alpha -->
    <defs>
     <path d="M 9.421875 75.984375 
L 18.40625 75.984375 
L 18.40625 0 
L 9.421875 0 
z
" id="DejaVuSans-6c"/>
     <path d="M 54.890625 33.015625 
L 54.890625 0 
L 45.90625 0 
L 45.90625 32.71875 
Q 45.90625 40.484375 42.875 44.328125 
Q 39.84375 48.1875 33.796875 48.1875 
Q 26.515625 48.1875 22.3125 43.546875 
Q 18.109375 38.921875 18.109375 30.90625 
L 18.109375 0 
L 9.078125 0 
L 9.078125 75.984375 
L 18.109375 75.984375 
L 18.109375 46.1875 
Q 21.34375 51.125 25.703125 53.5625 
Q 30.078125 56 35.796875 56 
Q 45.21875 56 50.046875 50.171875 
Q 54.890625 44.34375 54.890625 33.015625 
z
" id="DejaVuSans-68"/>
    </defs>
    <g style="fill:#262626;" transform="translate(917.489636 282.844429)scale(0.12 -0.12)">
     <use xlink:href="#DejaVuSans-69"/>
     <use x="27.783203" xlink:href="#DejaVuSans-6d"/>
     <use x="125.195312" xlink:href="#DejaVuSans-70"/>
     <use x="188.671875" xlink:href="#DejaVuSans-6f"/>
     <use x="249.853516" xlink:href="#DejaVuSans-72"/>
     <use x="290.966797" xlink:href="#DejaVuSans-74"/>
     <use x="330.175781" xlink:href="#DejaVuSans-69"/>
     <use x="357.958984" xlink:href="#DejaVuSans-6e"/>
     <use x="421.337891" xlink:href="#DejaVuSans-5f"/>
     <use x="471.337891" xlink:href="#DejaVuSans-61"/>
     <use x="532.617188" xlink:href="#DejaVuSans-6c"/>
     <use x="560.400391" xlink:href="#DejaVuSans-70"/>
     <use x="623.876953" xlink:href="#DejaVuSans-68"/>
     <use x="687.255859" xlink:href="#DejaVuSans-61"/>
    </g>
   </g>
   <g id="text_53">
    <!-- F5YE54 -->
    <g style="fill:#262626;" transform="translate(306.274851 198.741185)scale(0.12 -0.12)">
     <use xlink:href="#DejaVuSans-46"/>
     <use x="57.519531" xlink:href="#DejaVuSans-35"/>
     <use x="121.142578" xlink:href="#DejaVuSans-59"/>
     <use x="182.226562" xlink:href="#DejaVuSans-45"/>
     <use x="245.410156" xlink:href="#DejaVuSans-35"/>
     <use x="309.033203" xlink:href="#DejaVuSans-34"/>
    </g>
   </g>
   <g id="text_54">
    <!-- A0A142YCA6 -->
    <g style="fill:#262626;" transform="translate(255.179065 271.661465)scale(0.12 -0.12)">
     <use xlink:href="#DejaVuSans-41"/>
     <use x="68.408203" xlink:href="#DejaVuSans-30"/>
     <use x="132.03125" xlink:href="#DejaVuSans-41"/>
     <use x="200.439453" xlink:href="#DejaVuSans-31"/>
     <use x="264.0625" xlink:href="#DejaVuSans-34"/>
     <use x="327.685547" xlink:href="#DejaVuSans-32"/>
     <use x="391.308594" xlink:href="#DejaVuSans-59"/>
     <use x="452.314453" xlink:href="#DejaVuSans-43"/>
     <use x="522.138672" xlink:href="#DejaVuSans-41"/>
     <use x="590.546875" xlink:href="#DejaVuSans-36"/>
    </g>
   </g>
   <g id="text_55">
    <!-- A0A432MM10 -->
    <defs>
     <path d="M 9.8125 72.90625 
L 24.515625 72.90625 
L 43.109375 23.296875 
L 61.8125 72.90625 
L 76.515625 72.90625 
L 76.515625 0 
L 66.890625 0 
L 66.890625 64.015625 
L 48.09375 14.015625 
L 38.1875 14.015625 
L 19.390625 64.015625 
L 19.390625 0 
L 9.8125 0 
z
" id="DejaVuSans-4d"/>
    </defs>
    <g style="fill:#262626;" transform="translate(159.510364 312.902901)scale(0.12 -0.12)">
     <use xlink:href="#DejaVuSans-41"/>
     <use x="68.408203" xlink:href="#DejaVuSans-30"/>
     <use x="132.03125" xlink:href="#DejaVuSans-41"/>
     <use x="200.439453" xlink:href="#DejaVuSans-34"/>
     <use x="264.0625" xlink:href="#DejaVuSans-33"/>
     <use x="327.685547" xlink:href="#DejaVuSans-32"/>
     <use x="391.308594" xlink:href="#DejaVuSans-4d"/>
     <use x="477.587891" xlink:href="#DejaVuSans-4d"/>
     <use x="563.867188" xlink:href="#DejaVuSans-31"/>
     <use x="627.490234" xlink:href="#DejaVuSans-30"/>
    </g>
   </g>
   <g id="text_56">
    <!-- A0A225EB47 -->
    <g style="fill:#262626;" transform="translate(619.866988 104.878735)scale(0.12 -0.12)">
     <use xlink:href="#DejaVuSans-41"/>
     <use x="68.408203" xlink:href="#DejaVuSans-30"/>
     <use x="132.03125" xlink:href="#DejaVuSans-41"/>
     <use x="200.439453" xlink:href="#DejaVuSans-32"/>
     <use x="264.0625" xlink:href="#DejaVuSans-32"/>
     <use x="327.685547" xlink:href="#DejaVuSans-35"/>
     <use x="391.308594" xlink:href="#DejaVuSans-45"/>
     <use x="454.492188" xlink:href="#DejaVuSans-42"/>
     <use x="523.095703" xlink:href="#DejaVuSans-34"/>
     <use x="586.71875" xlink:href="#DejaVuSans-37"/>
    </g>
   </g>
   <g id="text_57">
    <!-- B9XCU2 -->
    <defs>
     <path d="M 6.296875 72.90625 
L 16.890625 72.90625 
L 35.015625 45.796875 
L 53.21875 72.90625 
L 63.8125 72.90625 
L 40.375 37.890625 
L 65.375 0 
L 54.78125 0 
L 34.28125 31 
L 13.625 0 
L 2.984375 0 
L 29 38.921875 
z
" id="DejaVuSans-58"/>
    </defs>
    <g style="fill:#262626;" transform="translate(581.077531 138.877565)scale(0.12 -0.12)">
     <use xlink:href="#DejaVuSans-42"/>
     <use x="68.603516" xlink:href="#DejaVuSans-39"/>
     <use x="132.226562" xlink:href="#DejaVuSans-58"/>
     <use x="200.623047" xlink:href="#DejaVuSans-43"/>
     <use x="270.447266" xlink:href="#DejaVuSans-55"/>
     <use x="343.640625" xlink:href="#DejaVuSans-32"/>
    </g>
   </g>
   <g id="text_58">
    <!-- A0A225E1Q9 -->
    <defs>
     <path d="M 39.40625 66.21875 
Q 28.65625 66.21875 22.328125 58.203125 
Q 16.015625 50.203125 16.015625 36.375 
Q 16.015625 22.609375 22.328125 14.59375 
Q 28.65625 6.59375 39.40625 6.59375 
Q 50.140625 6.59375 56.421875 14.59375 
Q 62.703125 22.609375 62.703125 36.375 
Q 62.703125 50.203125 56.421875 58.203125 
Q 50.140625 66.21875 39.40625 66.21875 
z
M 53.21875 1.3125 
L 66.21875 -12.890625 
L 54.296875 -12.890625 
L 43.5 -1.21875 
Q 41.890625 -1.3125 41.03125 -1.359375 
Q 40.1875 -1.421875 39.40625 -1.421875 
Q 24.03125 -1.421875 14.8125 8.859375 
Q 5.609375 19.140625 5.609375 36.375 
Q 5.609375 53.65625 14.8125 63.9375 
Q 24.03125 74.21875 39.40625 74.21875 
Q 54.734375 74.21875 63.90625 63.9375 
Q 73.09375 53.65625 73.09375 36.375 
Q 73.09375 23.6875 67.984375 14.640625 
Q 62.890625 5.609375 53.21875 1.3125 
z
" id="DejaVuSans-51"/>
    </defs>
    <g style="fill:#262626;" transform="translate(655.592743 129.103123)scale(0.12 -0.12)">
     <use xlink:href="#DejaVuSans-41"/>
     <use x="68.408203" xlink:href="#DejaVuSans-30"/>
     <use x="132.03125" xlink:href="#DejaVuSans-41"/>
     <use x="200.439453" xlink:href="#DejaVuSans-32"/>
     <use x="264.0625" xlink:href="#DejaVuSans-32"/>
     <use x="327.685547" xlink:href="#DejaVuSans-35"/>
     <use x="391.308594" xlink:href="#DejaVuSans-45"/>
     <use x="454.492188" xlink:href="#DejaVuSans-31"/>
     <use x="518.115234" xlink:href="#DejaVuSans-51"/>
     <use x="596.826172" xlink:href="#DejaVuSans-39"/>
    </g>
   </g>
   <g id="text_59">
    <!-- A0A1U7CV43 -->
    <g style="fill:#262626;" transform="translate(650.919116 161.750416)scale(0.12 -0.12)">
     <use xlink:href="#DejaVuSans-41"/>
     <use x="68.408203" xlink:href="#DejaVuSans-30"/>
     <use x="132.03125" xlink:href="#DejaVuSans-41"/>
     <use x="200.439453" xlink:href="#DejaVuSans-31"/>
     <use x="264.0625" xlink:href="#DejaVuSans-55"/>
     <use x="337.255859" xlink:href="#DejaVuSans-37"/>
     <use x="400.878906" xlink:href="#DejaVuSans-43"/>
     <use x="470.703125" xlink:href="#DejaVuSans-56"/>
     <use x="539.111328" xlink:href="#DejaVuSans-34"/>
     <use x="602.734375" xlink:href="#DejaVuSans-33"/>
    </g>
   </g>
   <g id="text_60">
    <!-- A0A368KJ79 -->
    <defs>
     <path d="M 9.8125 72.90625 
L 19.671875 72.90625 
L 19.671875 42.09375 
L 52.390625 72.90625 
L 65.09375 72.90625 
L 28.90625 38.921875 
L 67.671875 0 
L 54.6875 0 
L 19.671875 35.109375 
L 19.671875 0 
L 9.8125 0 
z
" id="DejaVuSans-4b"/>
     <path d="M 9.8125 72.90625 
L 19.671875 72.90625 
L 19.671875 5.078125 
Q 19.671875 -8.109375 14.671875 -14.0625 
Q 9.671875 -20.015625 -1.421875 -20.015625 
L -5.171875 -20.015625 
L -5.171875 -11.71875 
L -2.09375 -11.71875 
Q 4.4375 -11.71875 7.125 -8.046875 
Q 9.8125 -4.390625 9.8125 5.078125 
z
" id="DejaVuSans-4a"/>
    </defs>
    <g style="fill:#262626;" transform="translate(520.237461 121.231033)scale(0.12 -0.12)">
     <use xlink:href="#DejaVuSans-41"/>
     <use x="68.408203" xlink:href="#DejaVuSans-30"/>
     <use x="132.03125" xlink:href="#DejaVuSans-41"/>
     <use x="200.439453" xlink:href="#DejaVuSans-33"/>
     <use x="264.0625" xlink:href="#DejaVuSans-36"/>
     <use x="327.685547" xlink:href="#DejaVuSans-38"/>
     <use x="391.308594" xlink:href="#DejaVuSans-4b"/>
     <use x="456.884766" xlink:href="#DejaVuSans-4a"/>
     <use x="486.376953" xlink:href="#DejaVuSans-37"/>
     <use x="550" xlink:href="#DejaVuSans-39"/>
    </g>
   </g>
   <g id="text_61">
    <!-- L0DKB6 -->
    <defs>
     <path d="M 9.8125 72.90625 
L 19.671875 72.90625 
L 19.671875 8.296875 
L 55.171875 8.296875 
L 55.171875 0 
L 9.8125 0 
z
" id="DejaVuSans-4c"/>
    </defs>
    <g style="fill:#262626;" transform="translate(539.380468 82.69163)scale(0.12 -0.12)">
     <use xlink:href="#DejaVuSans-4c"/>
     <use x="55.712891" xlink:href="#DejaVuSans-30"/>
     <use x="119.335938" xlink:href="#DejaVuSans-44"/>
     <use x="196.337891" xlink:href="#DejaVuSans-4b"/>
     <use x="261.914062" xlink:href="#DejaVuSans-42"/>
     <use x="330.517578" xlink:href="#DejaVuSans-36"/>
    </g>
   </g>
   <g id="text_62">
    <!-- Q10XQ9 -->
    <g style="fill:#262626;" transform="translate(165.078937 192.401608)scale(0.12 -0.12)">
     <use xlink:href="#DejaVuSans-51"/>
     <use x="78.710938" xlink:href="#DejaVuSans-31"/>
     <use x="142.333984" xlink:href="#DejaVuSans-30"/>
     <use x="205.957031" xlink:href="#DejaVuSans-58"/>
     <use x="274.462891" xlink:href="#DejaVuSans-51"/>
     <use x="353.173828" xlink:href="#DejaVuSans-39"/>
    </g>
   </g>
   <g id="text_63">
    <!-- EU and PVC coatomers (MDS and GMM, n: 9, sil: 0.4358) -->
    <defs>
     <path id="DejaVuSans-20"/>
     <path d="M 45.40625 46.390625 
L 45.40625 75.984375 
L 54.390625 75.984375 
L 54.390625 0 
L 45.40625 0 
L 45.40625 8.203125 
Q 42.578125 3.328125 38.25 0.953125 
Q 33.9375 -1.421875 27.875 -1.421875 
Q 17.96875 -1.421875 11.734375 6.484375 
Q 5.515625 14.40625 5.515625 27.296875 
Q 5.515625 40.1875 11.734375 48.09375 
Q 17.96875 56 27.875 56 
Q 33.9375 56 38.25 53.625 
Q 42.578125 51.265625 45.40625 46.390625 
z
M 14.796875 27.296875 
Q 14.796875 17.390625 18.875 11.75 
Q 22.953125 6.109375 30.078125 6.109375 
Q 37.203125 6.109375 41.296875 11.75 
Q 45.40625 17.390625 45.40625 27.296875 
Q 45.40625 37.203125 41.296875 42.84375 
Q 37.203125 48.484375 30.078125 48.484375 
Q 22.953125 48.484375 18.875 42.84375 
Q 14.796875 37.203125 14.796875 27.296875 
z
" id="DejaVuSans-64"/>
     <path d="M 48.78125 52.59375 
L 48.78125 44.1875 
Q 44.96875 46.296875 41.140625 47.34375 
Q 37.3125 48.390625 33.40625 48.390625 
Q 24.65625 48.390625 19.8125 42.84375 
Q 14.984375 37.3125 14.984375 27.296875 
Q 14.984375 17.28125 19.8125 11.734375 
Q 24.65625 6.203125 33.40625 6.203125 
Q 37.3125 6.203125 41.140625 7.25 
Q 44.96875 8.296875 48.78125 10.40625 
L 48.78125 2.09375 
Q 45.015625 0.34375 40.984375 -0.53125 
Q 36.96875 -1.421875 32.421875 -1.421875 
Q 20.0625 -1.421875 12.78125 6.34375 
Q 5.515625 14.109375 5.515625 27.296875 
Q 5.515625 40.671875 12.859375 48.328125 
Q 20.21875 56 33.015625 56 
Q 37.15625 56 41.109375 55.140625 
Q 45.0625 54.296875 48.78125 52.59375 
z
" id="DejaVuSans-63"/>
     <path d="M 44.28125 53.078125 
L 44.28125 44.578125 
Q 40.484375 46.53125 36.375 47.5 
Q 32.28125 48.484375 27.875 48.484375 
Q 21.1875 48.484375 17.84375 46.4375 
Q 14.5 44.390625 14.5 40.28125 
Q 14.5 37.15625 16.890625 35.375 
Q 19.28125 33.59375 26.515625 31.984375 
L 29.59375 31.296875 
Q 39.15625 29.25 43.1875 25.515625 
Q 47.21875 21.78125 47.21875 15.09375 
Q 47.21875 7.46875 41.1875 3.015625 
Q 35.15625 -1.421875 24.609375 -1.421875 
Q 20.21875 -1.421875 15.453125 -0.5625 
Q 10.6875 0.296875 5.421875 2 
L 5.421875 11.28125 
Q 10.40625 8.6875 15.234375 7.390625 
Q 20.0625 6.109375 24.8125 6.109375 
Q 31.15625 6.109375 34.5625 8.28125 
Q 37.984375 10.453125 37.984375 14.40625 
Q 37.984375 18.0625 35.515625 20.015625 
Q 33.0625 21.96875 24.703125 23.78125 
L 21.578125 24.515625 
Q 13.234375 26.265625 9.515625 29.90625 
Q 5.8125 33.546875 5.8125 39.890625 
Q 5.8125 47.609375 11.28125 51.796875 
Q 16.75 56 26.8125 56 
Q 31.78125 56 36.171875 55.265625 
Q 40.578125 54.546875 44.28125 53.078125 
z
" id="DejaVuSans-73"/>
     <path d="M 31 75.875 
Q 24.46875 64.65625 21.28125 53.65625 
Q 18.109375 42.671875 18.109375 31.390625 
Q 18.109375 20.125 21.3125 9.0625 
Q 24.515625 -2 31 -13.1875 
L 23.1875 -13.1875 
Q 15.875 -1.703125 12.234375 9.375 
Q 8.59375 20.453125 8.59375 31.390625 
Q 8.59375 42.28125 12.203125 53.3125 
Q 15.828125 64.359375 23.1875 75.875 
z
" id="DejaVuSans-28"/>
     <path d="M 59.515625 10.40625 
L 59.515625 29.984375 
L 43.40625 29.984375 
L 43.40625 38.09375 
L 69.28125 38.09375 
L 69.28125 6.78125 
Q 63.578125 2.734375 56.6875 0.65625 
Q 49.8125 -1.421875 42 -1.421875 
Q 24.90625 -1.421875 15.25 8.5625 
Q 5.609375 18.5625 5.609375 36.375 
Q 5.609375 54.25 15.25 64.234375 
Q 24.90625 74.21875 42 74.21875 
Q 49.125 74.21875 55.546875 72.453125 
Q 61.96875 70.703125 67.390625 67.28125 
L 67.390625 56.78125 
Q 61.921875 61.421875 55.765625 63.765625 
Q 49.609375 66.109375 42.828125 66.109375 
Q 29.4375 66.109375 22.71875 58.640625 
Q 16.015625 51.171875 16.015625 36.375 
Q 16.015625 21.625 22.71875 14.15625 
Q 29.4375 6.6875 42.828125 6.6875 
Q 48.046875 6.6875 52.140625 7.59375 
Q 56.25 8.5 59.515625 10.40625 
z
" id="DejaVuSans-47"/>
     <path d="M 11.71875 12.40625 
L 22.015625 12.40625 
L 22.015625 4 
L 14.015625 -11.625 
L 7.71875 -11.625 
L 11.71875 4 
z
" id="DejaVuSans-2c"/>
     <path d="M 11.71875 12.40625 
L 22.015625 12.40625 
L 22.015625 0 
L 11.71875 0 
z
M 11.71875 51.703125 
L 22.015625 51.703125 
L 22.015625 39.3125 
L 11.71875 39.3125 
z
" id="DejaVuSans-3a"/>
     <path d="M 8.015625 75.875 
L 15.828125 75.875 
Q 23.140625 64.359375 26.78125 53.3125 
Q 30.421875 42.28125 30.421875 31.390625 
Q 30.421875 20.453125 26.78125 9.375 
Q 23.140625 -1.703125 15.828125 -13.1875 
L 8.015625 -13.1875 
Q 14.5 -2 17.703125 9.0625 
Q 20.90625 20.125 20.90625 31.390625 
Q 20.90625 42.671875 17.703125 53.65625 
Q 14.5 64.65625 8.015625 75.875 
z
" id="DejaVuSans-29"/>
    </defs>
    <g style="fill:#262626;" transform="translate(383.740313 63.12)scale(0.12 -0.12)">
     <use xlink:href="#DejaVuSans-45"/>
     <use x="63.183594" xlink:href="#DejaVuSans-55"/>
     <use x="136.376953" xlink:href="#DejaVuSans-20"/>
     <use x="168.164062" xlink:href="#DejaVuSans-61"/>
     <use x="229.443359" xlink:href="#DejaVuSans-6e"/>
     <use x="292.822266" xlink:href="#DejaVuSans-64"/>
     <use x="356.298828" xlink:href="#DejaVuSans-20"/>
     <use x="388.085938" xlink:href="#DejaVuSans-50"/>
     <use x="448.388672" xlink:href="#DejaVuSans-56"/>
     <use x="516.796875" xlink:href="#DejaVuSans-43"/>
     <use x="586.621094" xlink:href="#DejaVuSans-20"/>
     <use x="618.408203" xlink:href="#DejaVuSans-63"/>
     <use x="673.388672" xlink:href="#DejaVuSans-6f"/>
     <use x="734.570312" xlink:href="#DejaVuSans-61"/>
     <use x="795.849609" xlink:href="#DejaVuSans-74"/>
     <use x="835.058594" xlink:href="#DejaVuSans-6f"/>
     <use x="896.240234" xlink:href="#DejaVuSans-6d"/>
     <use x="993.652344" xlink:href="#DejaVuSans-65"/>
     <use x="1055.175781" xlink:href="#DejaVuSans-72"/>
     <use x="1096.289062" xlink:href="#DejaVuSans-73"/>
     <use x="1148.388672" xlink:href="#DejaVuSans-20"/>
     <use x="1180.175781" xlink:href="#DejaVuSans-28"/>
     <use x="1219.189453" xlink:href="#DejaVuSans-4d"/>
     <use x="1305.46875" xlink:href="#DejaVuSans-44"/>
     <use x="1382.470703" xlink:href="#DejaVuSans-53"/>
     <use x="1445.947266" xlink:href="#DejaVuSans-20"/>
     <use x="1477.734375" xlink:href="#DejaVuSans-61"/>
     <use x="1539.013672" xlink:href="#DejaVuSans-6e"/>
     <use x="1602.392578" xlink:href="#DejaVuSans-64"/>
     <use x="1665.869141" xlink:href="#DejaVuSans-20"/>
     <use x="1697.65625" xlink:href="#DejaVuSans-47"/>
     <use x="1775.146484" xlink:href="#DejaVuSans-4d"/>
     <use x="1861.425781" xlink:href="#DejaVuSans-4d"/>
     <use x="1947.705078" xlink:href="#DejaVuSans-2c"/>
     <use x="1979.492188" xlink:href="#DejaVuSans-20"/>
     <use x="2011.279297" xlink:href="#DejaVuSans-6e"/>
     <use x="2074.658203" xlink:href="#DejaVuSans-3a"/>
     <use x="2108.349609" xlink:href="#DejaVuSans-20"/>
     <use x="2140.136719" xlink:href="#DejaVuSans-39"/>
     <use x="2203.759766" xlink:href="#DejaVuSans-2c"/>
     <use x="2235.546875" xlink:href="#DejaVuSans-20"/>
     <use x="2267.333984" xlink:href="#DejaVuSans-73"/>
     <use x="2319.433594" xlink:href="#DejaVuSans-69"/>
     <use x="2347.216797" xlink:href="#DejaVuSans-6c"/>
     <use x="2375" xlink:href="#DejaVuSans-3a"/>
     <use x="2408.691406" xlink:href="#DejaVuSans-20"/>
     <use x="2440.478516" xlink:href="#DejaVuSans-30"/>
     <use x="2504.101562" xlink:href="#DejaVuSans-2e"/>
     <use x="2535.888672" xlink:href="#DejaVuSans-34"/>
     <use x="2599.511719" xlink:href="#DejaVuSans-33"/>
     <use x="2663.134766" xlink:href="#DejaVuSans-35"/>
     <use x="2726.757812" xlink:href="#DejaVuSans-38"/>
     <use x="2790.380859" xlink:href="#DejaVuSans-29"/>
    </g>
   </g>
  </g>
 </g>
 <defs>
  <clipPath id="p85dc09ff09">
   <rect height="443.52" width="837" x="135" y="69.12"/>
  </clipPath>
 </defs>
</svg>
